HIERARCHY
ROOT Hips
{
	OFFSET 0.000000 100.481300 0.000000
	CHANNELS 6 Xposition Yposition Zposition Xrotation Yrotation Zrotation
	JOINT Spine
	{
		OFFSET -0.279200 12.230698 -2.892100
		CHANNELS 3 Xrotation Yrotation Zrotation
		JOINT Spine1
		{
			OFFSET -0.325700 14.269203 -3.374200
			CHANNELS 3 Xrotation Yrotation Zrotation
			JOINT Spine2
			{
				OFFSET -0.372300 16.307602 -0.352600
				CHANNELS 3 Xrotation Yrotation Zrotation
				JOINT Neck
				{
					OFFSET -0.418800 17.814194 8.416900
					CHANNELS 3 Xrotation Yrotation Zrotation
					JOINT Head
					{
						OFFSET 0.000000 7.031097 3.806800
						CHANNELS 3 Xrotation Yrotation Zrotation
						JOINT HeadTop_End
						{
							OFFSET 0.000000 24.646606 12.978600
							CHANNELS 3 Xrotation Yrotation Zrotation
							End Site
							{
								OFFSET 0.000000 27.854965 0.000000
							}
						}
					}
				}
				JOINT LeftShoulder
				{
					OFFSET 16.952999 14.495407 -7.737500
					CHANNELS 3 Xrotation Yrotation Zrotation
					JOINT LeftArm
					{
						OFFSET 9.308998 -2.777710 0.208600
						CHANNELS 3 Xrotation Yrotation Zrotation
						JOINT LeftForeArm
						{
							OFFSET 29.972298 0.000000 0.000000
							CHANNELS 3 Xrotation Yrotation Zrotation
							JOINT LeftHand
							{
								OFFSET 26.026505 0.000000 0.000000
								CHANNELS 3 Xrotation Yrotation Zrotation
								JOINT LeftHandThumb1
								{
									OFFSET 12.240501 -7.147949 9.207150
									CHANNELS 3 Xrotation Yrotation Zrotation
									JOINT LeftHandThumb2
									{
										OFFSET 4.138618 -2.389435 2.389433
										CHANNELS 3 Xrotation Yrotation Zrotation
										JOINT LeftHandThumb3
										{
											OFFSET 2.726913 -1.574387 1.574386
											CHANNELS 3 Xrotation Yrotation Zrotation
											JOINT LeftHandThumb4
											{
												OFFSET 3.941010 -2.275345 2.275342
												CHANNELS 3 Xrotation Yrotation Zrotation
												End Site
												{
													OFFSET -0.005798 5.087799 0.009903
												}
											}
										}
									}
								}
								JOINT LeftHandIndex1
								{
									OFFSET 24.424698 -1.985611 5.953459
									CHANNELS 3 Xrotation Yrotation Zrotation
									JOINT LeftHandIndex2
									{
										OFFSET 6.426697 0.000000 0.000000
										CHANNELS 3 Xrotation Yrotation Zrotation
										JOINT LeftHandIndex3
										{
											OFFSET 5.337898 0.000000 0.000000
											CHANNELS 3 Xrotation Yrotation Zrotation
											JOINT LeftHandIndex4
											{
												OFFSET 4.409401 0.000000 0.000000
												CHANNELS 3 Xrotation Yrotation Zrotation
												End Site
												{
													OFFSET 0.000000 4.409363 0.014373
												}
											}
										}
									}
								}
								JOINT LeftHandMiddle1
								{
									OFFSET 23.810104 0.000000 0.000000
									CHANNELS 3 Xrotation Yrotation Zrotation
									JOINT LeftHandMiddle2
									{
										OFFSET 7.176498 0.000000 0.000000
										CHANNELS 3 Xrotation Yrotation Zrotation
										JOINT LeftHandMiddle3
										{
											OFFSET 6.774902 0.000000 0.000000
											CHANNELS 3 Xrotation Yrotation Zrotation
											JOINT LeftHandMiddle4
											{
												OFFSET 5.403328 0.000000 0.000000
												CHANNELS 3 Xrotation Yrotation Zrotation
												End Site
												{
													OFFSET -0.027702 5.403244 0.017414
												}
											}
										}
									}
								}
								JOINT LeftHandRing1
								{
									OFFSET 22.908401 -0.839279 -6.020567
									CHANNELS 3 Xrotation Yrotation Zrotation
									JOINT LeftHandRing2
									{
										OFFSET 6.337502 0.000000 0.000000
										CHANNELS 3 Xrotation Yrotation Zrotation
										JOINT LeftHandRing3
										{
											OFFSET 5.779297 0.000000 0.000000
											CHANNELS 3 Xrotation Yrotation Zrotation
											JOINT LeftHandRing4
											{
												OFFSET 4.965698 0.000000 0.000000
												CHANNELS 3 Xrotation Yrotation Zrotation
												End Site
												{
													OFFSET 0.000000 4.965668 0.016186
												}
											}
										}
									}
								}
								JOINT LeftHandPinky1
								{
									OFFSET 20.037003 -1.530319 -10.950146
									CHANNELS 3 Xrotation Yrotation Zrotation
									JOINT LeftHandPinky2
									{
										OFFSET 5.254700 0.000000 0.000000
										CHANNELS 3 Xrotation Yrotation Zrotation
										JOINT LeftHandPinky3
										{
											OFFSET 4.810204 0.000000 0.000000
											CHANNELS 3 Xrotation Yrotation Zrotation
											JOINT LeftHandPinky4
											{
												OFFSET 3.647202 0.000000 0.000000
												CHANNELS 3 Xrotation Yrotation Zrotation
												End Site
												{
													OFFSET 0.000000 3.647186 0.011889
												}
											}
										}
									}
								}
							}
						}
					}
				}
				JOINT RightShoulder
				{
					OFFSET -15.141001 14.495407 -7.737500
					CHANNELS 3 Xrotation Yrotation Zrotation
					JOINT RightArm
					{
						OFFSET -9.308998 -2.777710 0.208500
						CHANNELS 3 Xrotation Yrotation Zrotation
						JOINT RightForeArm
						{
							OFFSET -29.972300 0.000000 0.000000
							CHANNELS 3 Xrotation Yrotation Zrotation
							JOINT RightHand
							{
								OFFSET -26.026505 0.000000 0.000000
								CHANNELS 3 Xrotation Yrotation Zrotation
								JOINT RightHandThumb1
								{
									OFFSET -12.240601 -7.148026 9.207092
									CHANNELS 3 Xrotation Yrotation Zrotation
									JOINT RightHandThumb2
									{
										OFFSET -4.138618 -2.389435 2.389433
										CHANNELS 3 Xrotation Yrotation Zrotation
										JOINT RightHandThumb3
										{
											OFFSET -2.726974 -1.574417 1.574421
											CHANNELS 3 Xrotation Yrotation Zrotation
											JOINT RightHandThumb4
											{
												OFFSET -3.941010 -2.275345 2.275343
												CHANNELS 3 Xrotation Yrotation Zrotation
												End Site
												{
													OFFSET 0.005814 5.087799 0.009927
												}
											}
										}
									}
								}
								JOINT RightHandIndex1
								{
									OFFSET -24.424698 -1.985657 5.953444
									CHANNELS 3 Xrotation Yrotation Zrotation
									JOINT RightHandIndex2
									{
										OFFSET -6.426697 0.000000 0.000000
										CHANNELS 3 Xrotation Yrotation Zrotation
										JOINT RightHandIndex3
										{
											OFFSET -5.337898 0.000000 0.000000
											CHANNELS 3 Xrotation Yrotation Zrotation
											JOINT RightHandIndex4
											{
												OFFSET -4.409401 0.000000 0.000000
												CHANNELS 3 Xrotation Yrotation Zrotation
												End Site
												{
													OFFSET 0.000000 4.409363 0.014408
												}
											}
										}
									}
								}
								JOINT RightHandMiddle1
								{
									OFFSET -23.810097 0.000000 0.000000
									CHANNELS 3 Xrotation Yrotation Zrotation
									JOINT RightHandMiddle2
									{
										OFFSET -7.176498 0.000000 0.000000
										CHANNELS 3 Xrotation Yrotation Zrotation
										JOINT RightHandMiddle3
										{
											OFFSET -6.774902 0.000000 0.000000
											CHANNELS 3 Xrotation Yrotation Zrotation
											JOINT RightHandMiddle4
											{
												OFFSET -5.403328 0.000000 0.000000
												CHANNELS 3 Xrotation Yrotation Zrotation
												End Site
												{
													OFFSET 0.027702 5.403244 0.017457
												}
											}
										}
									}
								}
								JOINT RightHandRing1
								{
									OFFSET -22.908302 -0.839325 -6.020576
									CHANNELS 3 Xrotation Yrotation Zrotation
									JOINT RightHandRing2
									{
										OFFSET -6.337502 0.000000 0.000000
										CHANNELS 3 Xrotation Yrotation Zrotation
										JOINT RightHandRing3
										{
											OFFSET -5.779297 0.000000 0.000000
											CHANNELS 3 Xrotation Yrotation Zrotation
											JOINT RightHandRing4
											{
												OFFSET -4.965698 0.000000 0.000000
												CHANNELS 3 Xrotation Yrotation Zrotation
												End Site
												{
													OFFSET 0.000000 4.965668 0.016226
												}
											}
										}
									}
								}
								JOINT RightHandPinky1
								{
									OFFSET -20.037003 -1.530334 -10.950259
									CHANNELS 3 Xrotation Yrotation Zrotation
									JOINT RightHandPinky2
									{
										OFFSET -5.254700 0.000000 0.000000
										CHANNELS 3 Xrotation Yrotation Zrotation
										JOINT RightHandPinky3
										{
											OFFSET -4.810204 0.000000 0.000000
											CHANNELS 3 Xrotation Yrotation Zrotation
											JOINT RightHandPinky4
											{
												OFFSET -3.647202 0.000000 0.000000
												CHANNELS 3 Xrotation Yrotation Zrotation
												End Site
												{
													OFFSET 0.000000 3.647186 0.011917
												}
											}
										}
									}
								}
							}
						}
					}
				}
			}
		}
	}
	JOINT LeftUpLeg
	{
		OFFSET 15.427100 -6.655098 0.678600
		CHANNELS 3 Xrotation Yrotation Zrotation
		JOINT LeftLeg
		{
			OFFSET 4.081073 -39.591068 13.024000
			CHANNELS 3 Xrotation Yrotation Zrotation
			JOINT LeftFoot
			{
				OFFSET -4.081074 -37.707932 -15.979700
				CHANNELS 3 Xrotation Yrotation Zrotation
				JOINT LeftToeBase
				{
					OFFSET 5.346399 -15.068900 20.645000
					CHANNELS 3 Xrotation Yrotation Zrotation
					JOINT LeftToe_End
					{
						OFFSET 2.754700 0.931300 11.300900
						CHANNELS 3 Xrotation Yrotation Zrotation
						End Site
						{
							OFFSET 0.000000 11.669021 0.000000
						}
					}
				}
			}
		}
	}
	JOINT RightUpLeg
	{
		OFFSET -15.569500 -6.655098 0.678600
		CHANNELS 3 Xrotation Yrotation Zrotation
		JOINT RightLeg
		{
			OFFSET -4.081825 -39.591045 13.023800
			CHANNELS 3 Xrotation Yrotation Zrotation
			JOINT RightFoot
			{
				OFFSET 4.081824 -37.707954 -15.979600
				CHANNELS 3 Xrotation Yrotation Zrotation
				JOINT RightToeBase
				{
					OFFSET -5.346400 -15.068900 20.645000
					CHANNELS 3 Xrotation Yrotation Zrotation
					JOINT RightToe_End
					{
						OFFSET -2.754700 0.931300 11.300900
						CHANNELS 3 Xrotation Yrotation Zrotation
						End Site
						{
							OFFSET 0.000000 11.669021 0.000000
						}
					}
				}
			}
		}
	}
}
MOTION
Frames: 5
Frame Time: 0.033333
-11.644001 79.838455 27.740015 31.700370 -20.425599 18.997323 2.967183 0.725810 0.937899 5.385714 1.134361 -5.764028 5.380328 1.215363 -5.756004 -4.983166 -0.614488 2.149712 -17.852900 -1.068801 2.265249 -0.000000 0.000000 0.000000 0.464746 5.789895 -9.561969 3.943371 -5.792124 -42.239119 0.000011 -32.692239 -0.000003 14.158268 -5.355015 -1.274911 -1.540022 3.690172 6.142349 3.946755 7.971392 0.752852 -0.575606 1.586265 2.542384 -0.000002 0.000000 0.000001 0.147987 1.422703 -11.876391 0.147977 1.422716 -11.876387 0.147991 1.422711 -11.876423 0.000002 0.000000 0.000000 0.166630 1.508612 -12.605286 0.235709 1.789614 -15.005174 0.249253 1.839419 -15.433239 0.000001 -0.000000 0.000000 0.279145 1.944322 -16.338125 0.392613 2.296013 -19.404557 0.415963 2.361245 -19.979668 -0.000000 0.000001 -0.000002 2.213843 6.501284 -23.397554 0.592678 -1.273896 -24.244595 0.586505 2.785489 -23.776175 -0.000002 0.000002 -0.000002 0.282103 -6.761156 10.838592 11.641634 20.301942 51.859171 0.000007 58.414578 0.000018 0.444409 -12.250036 -7.096675 -1.849249 -3.581789 -6.586107 4.645029 -8.656776 -0.231324 -1.269839 0.126085 -2.098687 0.000001 0.000000 -0.000001 0.145988 -1.420175 11.737715 0.145990 -1.420174 11.737729 0.145982 -1.420170 11.737700 -0.000001 0.000000 -0.000001 0.108984 -1.228734 10.136861 0.153527 -1.455990 12.038246 0.162719 -1.498431 12.394807 -0.000002 -0.000000 -0.000000 0.125674 -1.318649 10.887695 0.177011 -1.562029 12.930045 0.187609 -1.607455 13.313015 -0.000001 -0.000001 0.000001 0.211542 -1.705382 14.140933 0.211532 -1.705375 14.140986 0.211545 -1.705378 14.140958 0.000001 0.000001 0.000003 -59.733590 5.513048 -7.709319 62.364716 -7.012667 0.038151 -9.897789 -8.747477 -2.912000 -16.720433 -2.073723 8.735722 -0.000000 0.000001 -0.000000 -13.467594 -9.460750 -8.973185 44.726876 -4.350298 0.361279 -27.571431 -3.432804 2.294383 -27.664266 -0.194031 4.803122 -0.000001 0.000001 -0.000000 
-13.740967 77.815308 30.541687 30.797644 -18.559893 19.322503 2.818226 -0.228469 -0.542850 5.127853 0.334797 -6.081194 5.127001 0.410980 -6.080604 -5.003914 -0.656006 2.462989 -17.775043 -1.540390 4.507246 0.000001 -0.000001 -0.000001 0.468899 5.800915 -9.629681 1.310440 -8.204769 -41.423431 0.000005 -35.595814 -0.000002 13.533783 -5.885729 1.006723 -1.540025 3.690174 6.142348 3.946748 7.971390 0.752854 -0.575601 1.586261 2.542380 0.000000 -0.000001 -0.000001 0.147989 1.422704 -11.876394 0.147982 1.422716 -11.876387 0.147995 1.422709 -11.876423 -0.000001 0.000001 -0.000000 0.166632 1.508612 -12.605284 0.235705 1.789613 -15.005178 0.249251 1.839419 -15.433238 -0.000001 0.000002 -0.000000 0.279148 1.944321 -16.338123 0.392612 2.296009 -19.404561 0.415961 2.361241 -19.979666 0.000004 0.000000 -0.000002 2.213846 6.501285 -23.397554 0.592675 -1.273897 -24.244591 0.586506 2.785494 -23.776179 -0.000001 -0.000000 0.000001 0.274092 -6.830540 10.907521 14.078798 18.501038 54.454076 0.000015 54.825450 -0.000017 2.592924 -10.042840 -8.016089 -1.849247 -3.581789 -6.586105 4.645027 -8.656777 -0.231324 -1.269838 0.126084 -2.098684 0.000000 -0.000000 0.000000 0.145988 -1.420175 11.737713 0.145991 -1.420175 11.737728 0.145981 -1.420170 11.737702 -0.000001 0.000000 -0.000001 0.108986 -1.228734 10.136863 0.153528 -1.455991 12.038246 0.162718 -1.498430 12.394807 0.000001 -0.000002 -0.000001 0.125674 -1.318648 10.887695 0.177008 -1.562030 12.930043 0.187608 -1.607455 13.313017 0.000000 0.000000 0.000000 0.211541 -1.705382 14.140932 0.211534 -1.705374 14.140985 0.211545 -1.705379 14.140961 -0.000001 -0.000000 0.000003 -54.881478 5.379483 -10.234150 63.415581 -6.335129 0.598235 -16.512450 -8.908664 0.698531 -15.986843 -1.389948 7.223927 0.000000 -0.000002 -0.000000 -21.799455 -5.277876 -12.679461 57.530670 -5.610418 0.446126 -4.819543 -2.746919 12.210941 -51.984741 -3.935808 7.671440 -0.000000 0.000003 -0.000000 
-16.416689 74.905701 32.684528 30.037099 -16.243722 20.629389 2.759710 -1.177704 -3.288189 5.083815 -1.043831 -6.210552 5.090483 -0.976562 -6.218900 -5.379843 -0.524354 2.555247 -18.560595 -1.328696 6.442415 0.000000 0.000002 -0.000000 0.479590 6.137283 -10.015958 -1.876770 -12.675827 -40.285183 0.000012 -40.516395 0.000001 12.776507 -5.695677 3.907901 -1.540025 3.690172 6.142349 3.946754 7.971392 0.752852 -0.575604 1.586264 2.542380 0.000000 -0.000001 0.000002 0.147988 1.422702 -11.876392 0.147980 1.422715 -11.876388 0.147990 1.422710 -11.876423 0.000001 0.000000 -0.000001 0.166630 1.508613 -12.605284 0.235706 1.789613 -15.005176 0.249255 1.839418 -15.433239 0.000001 -0.000000 -0.000001 0.279145 1.944320 -16.338123 0.392614 2.296008 -19.404557 0.415961 2.361245 -19.979669 -0.000000 0.000002 -0.000001 2.213843 6.501285 -23.397552 0.592676 -1.273897 -24.244593 0.586504 2.785492 -23.776177 -0.000000 0.000002 -0.000002 0.233204 -7.161084 11.291484 15.759716 16.086526 56.082113 0.000005 51.013050 -0.000022 3.963871 -8.573357 -8.471060 -1.849246 -3.581790 -6.586106 4.645029 -8.656776 -0.231320 -1.269840 0.126083 -2.098687 -0.000001 0.000001 -0.000001 0.145988 -1.420176 11.737716 0.145991 -1.420175 11.737728 0.145982 -1.420173 11.737702 -0.000001 0.000002 -0.000001 0.108986 -1.228736 10.136864 0.153529 -1.455991 12.038244 0.162718 -1.498432 12.394808 -0.000001 0.000001 0.000001 0.125675 -1.318649 10.887696 0.177010 -1.562030 12.930044 0.187608 -1.607455 13.313015 0.000001 0.000001 0.000001 0.211542 -1.705383 14.140935 0.211533 -1.705374 14.140985 0.211544 -1.705381 14.140958 0.000001 0.000002 0.000001 -51.306335 4.265943 -12.140709 65.100445 -6.200027 0.959549 -23.778834 -10.035113 1.132087 -14.969434 -0.711438 5.198731 -0.000000 -0.000002 0.000001 -29.635228 0.248354 -17.088206 69.042072 -3.737123 1.336811 9.310419 0.575443 29.537696 -61.462714 -3.370257 2.888905 -0.000001 0.000001 -0.000000 
-19.736929 72.922043 37.070534 30.573265 -13.299860 19.923286 2.760058 -2.001177 -3.985002 5.009248 -2.830291 -5.596461 5.025197 -2.756339 -5.621309 -6.049819 -0.302168 2.569586 -19.789058 -0.482263 7.530477 -0.000001 0.000000 -0.000000 0.499766 6.534579 -10.556655 -6.539281 -18.726618 -39.432724 0.000025 -46.224193 0.000010 11.376361 -3.246516 6.937444 -1.540022 3.690173 6.142344 3.946751 7.971393 0.752859 -0.575604 1.586260 2.542381 0.000001 -0.000003 0.000001 0.147989 1.422703 -11.876395 0.147983 1.422715 -11.876388 0.147992 1.422711 -11.876423 0.000001 0.000000 -0.000001 0.166631 1.508613 -12.605289 0.235708 1.789614 -15.005176 0.249254 1.839418 -15.433236 0.000001 -0.000000 -0.000000 0.279147 1.944321 -16.338125 0.392610 2.296009 -19.404559 0.415962 2.361246 -19.979673 0.000000 0.000001 -0.000001 2.213845 6.501285 -23.397557 0.592676 -1.273898 -24.244588 0.586503 2.785491 -23.776174 0.000000 -0.000001 0.000001 0.186021 -7.498269 11.718719 16.560173 12.412002 56.435654 0.000003 47.693039 0.000019 4.424748 -8.183969 -8.238952 -1.849247 -3.581788 -6.586106 4.645029 -8.656781 -0.231325 -1.269836 0.126084 -2.098684 -0.000001 -0.000003 -0.000001 0.145987 -1.420172 11.737715 0.145991 -1.420172 11.737730 0.145982 -1.420171 11.737701 0.000001 0.000000 -0.000001 0.108985 -1.228734 10.136863 0.153530 -1.455989 12.038244 0.162719 -1.498435 12.394808 -0.000001 0.000000 -0.000000 0.125673 -1.318647 10.887695 0.177009 -1.562027 12.930042 0.187607 -1.607456 13.313016 -0.000000 0.000001 -0.000001 0.211541 -1.705381 14.140934 0.211533 -1.705373 14.140983 0.211544 -1.705380 14.140959 -0.000000 0.000001 0.000001 -46.758635 1.811148 -11.465303 65.317379 -6.462453 1.052644 -30.990204 -12.755675 0.562597 -14.444202 -0.411135 3.955170 -0.000000 -0.000001 0.000000 -42.537435 3.701455 -17.188663 81.974148 -0.824476 1.281644 8.689493 0.657157 33.074935 -38.435602 0.135696 1.802720 -0.000004 -0.000001 -0.000001 
-23.394323 72.551674 43.969452 32.215468 -10.622813 16.952772 2.870422 -2.659719 -2.960675 4.882567 -4.553432 -4.038276 4.912315 -4.464783 -4.100530 -6.486433 -0.031363 2.784018 -20.384121 1.087128 7.942344 -0.000001 -0.000000 0.000000 0.503099 6.386179 -10.508359 -13.218414 -24.364772 -40.436885 0.000003 -50.315989 0.000007 9.814237 -0.263729 8.535331 -1.540026 3.690169 6.142354 3.946749 7.971393 0.752854 -0.575605 1.586263 2.542383 -0.000002 0.000001 -0.000000 0.147986 1.422703 -11.876388 0.147982 1.422714 -11.876388 0.147994 1.422711 -11.876425 0.000002 0.000000 -0.000000 0.166629 1.508611 -12.605284 0.235707 1.789614 -15.005174 0.249253 1.839418 -15.433239 -0.000003 0.000001 0.000001 0.279145 1.944318 -16.338123 0.392614 2.296008 -19.404562 0.415960 2.361247 -19.979671 -0.000000 -0.000003 0.000001 2.213845 6.501282 -23.397554 0.592673 -1.273898 -24.244590 0.586509 2.785492 -23.776179 0.000001 0.000000 -0.000002 0.203523 -7.378708 11.554917 15.883436 7.246231 56.769503 0.000002 44.249217 -0.000003 5.228077 -5.908480 -7.803475 -1.849247 -3.581790 -6.586105 4.645028 -8.656773 -0.231325 -1.269839 0.126084 -2.098685 -0.000000 0.000002 -0.000001 0.145987 -1.420176 11.737715 0.145991 -1.420176 11.737729 0.145982 -1.420172 11.737703 -0.000001 -0.000000 -0.000001 0.108986 -1.228737 10.136864 0.153528 -1.455990 12.038243 0.162719 -1.498432 12.394806 0.000000 0.000002 -0.000000 0.125674 -1.318650 10.887696 0.177009 -1.562031 12.930045 0.187608 -1.607454 13.313015 0.000000 0.000002 -0.000001 0.211541 -1.705384 14.140937 0.211533 -1.705374 14.140983 0.211544 -1.705378 14.140958 -0.000001 0.000001 0.000001 -39.913474 -0.902414 -7.226822 62.055697 -7.360833 0.608227 -36.742647 -16.137874 -0.271918 -14.531081 -0.341582 3.598767 -0.000000 -0.000000 -0.000000 -58.453305 4.858128 -15.299559 88.905410 0.145487 0.992998 3.767783 -0.457869 33.260405 -38.580740 8.229195 -10.327196 0.000001 0.000000 -0.000000 
